HIERARCHY
ROOT Hips
{
    OFFSET 0.000000 0.000000 0.000000
    CHANNELS 6 Xposition Yposition Zposition Zrotation Xrotation Yrotation
    JOINT Spine
    {
        OFFSET -0.000000 6.993131 0.000000
        CHANNELS 3 Zrotation Xrotation Yrotation
        JOINT Spine1
        {
            OFFSET -0.000000 20.649729 0.000000
            CHANNELS 3 Zrotation Xrotation Yrotation
            JOINT Neck
            {
                OFFSET -0.000000 20.564924 1.869539
                CHANNELS 3 Zrotation Xrotation Yrotation
                JOINT Head
                {
                    OFFSET -0.000000 11.939490 -1.705642
                    CHANNELS 3 Zrotation Xrotation Yrotation
                    End Site
                    {
                        OFFSET -0.000000 21.320518 0.000000
                    }
                }
            }
            JOINT LeftShoulder
            {
                OFFSET 3.446977 19.850397 -0.038759
                CHANNELS 3 Zrotation Xrotation Yrotation
                JOINT LeftArm
                {
                    OFFSET 7.083611 0.000000 0.000000
                    CHANNELS 3 Zrotation Xrotation Yrotation
                    JOINT LeftForeArm
                    {
                        OFFSET 32.044487 0.000000 0.000000
                        CHANNELS 3 Zrotation Xrotation Yrotation
                        JOINT LeftHand
                        {
                            OFFSET 22.068741 0.000000 0.000000
                            CHANNELS 3 Zrotation Xrotation Yrotation
                            End Site
                            {
                                OFFSET 12.792312 0.000000 0.000000
                            }
                        }
                    }
                }
            }
            JOINT RightShoulder
            {
                OFFSET -3.365844 19.850397 -0.038759
                CHANNELS 3 Zrotation Xrotation Yrotation
                JOINT RightArm
                {
                    OFFSET -7.083611 0.000000 0.000000
                    CHANNELS 3 Zrotation Xrotation Yrotation
                    JOINT RightForeArm
                    {
                        OFFSET -32.044487 0.000000 0.000000
                        CHANNELS 3 Zrotation Xrotation Yrotation
                        JOINT RightHand
                        {
                            OFFSET -22.068741 0.000000 0.000000
                            CHANNELS 3 Zrotation Xrotation Yrotation
                            End Site
                            {
                                OFFSET -12.792312 0.000000 0.000000
                            }
                        }
                    }
                }
            }
        }
    }
    JOINT LeftUpLeg
    {
        OFFSET 8.528208 0.000000 0.000000
        CHANNELS 3 Zrotation Xrotation Yrotation
        JOINT LeftLeg
        {
            OFFSET -0.000000 -31.874865 0.000000
            CHANNELS 3 Zrotation Xrotation Yrotation
            JOINT LeftFoot
            {
                OFFSET -0.000000 -38.221939 0.000000
                CHANNELS 3 Zrotation Xrotation Yrotation
                JOINT LeftToeBase
                {
                    OFFSET -0.000000 -5.543335 12.792312
                    CHANNELS 3 Zrotation Xrotation Yrotation
                    End Site
                    {
                        OFFSET -0.000000 0.000000 3.411283
                    }
                }
            }
        }
    }
    JOINT RightUpLeg
    {
        OFFSET -8.528208 0.000000 0.000000
        CHANNELS 3 Zrotation Xrotation Yrotation
        JOINT RightLeg
        {
            OFFSET -0.000000 -31.874865 0.000000
            CHANNELS 3 Zrotation Xrotation Yrotation
            JOINT RightFoot
            {
                OFFSET -0.000000 -38.221939 0.000000
                CHANNELS 3 Zrotation Xrotation Yrotation
                JOINT RightToeBase
                {
                    OFFSET -0.000000 -5.543335 12.792312
                    CHANNELS 3 Zrotation Xrotation Yrotation
                    End Site
                    {
                        OFFSET -0.000000 0.000000 3.411283
                    }
                }
            }
        }
    }
}
MOTION
Frames:    14
Frame Time:    0.008333
29.835173    75.885414    25.616396    -1.603578    1.574575    88.914063    -4.559801    -6.693685    3.884691    0.782779    3.951887    4.124480    10.405315    8.604629    0.486413    -7.740117    4.807774    -1.022942    30.228676    -4.029583    0.901270    -28.595892    -7.635333    -13.059480    1.988132    3.576065    1.371659    -8.819718    3.714833    -2.111512    -11.709525    -1.482043    -10.518938    8.950081    -3.347307    2.430211    -4.166829    6.036479    0.549482    6.790954    5.767696    -4.888147    -2.438645    0.527135    0.008755    2.475452    2.658719    4.048061    -1.200568    -7.832929    2.396593    0.000000    0.000000    0.000000    -13.025553    4.137653    -0.989342    12.263838    -4.160884    -1.710328    -3.847820    -1.091623    -8.442796    0.000000    0.000000    0.000000    
29.835325    75.884712    25.607882    -1.595814    1.567983    88.913246    -4.591870    -6.687802    3.923213    0.818892    3.957633    4.163361    10.538024    8.642917    0.517359    -7.925689    4.696455    -1.023036    30.285275    -4.022097    0.920880    -28.737204    -7.649980    -13.174688    1.971531    3.743622    1.409951    -8.709343    3.887889    -2.216871    -11.682649    -1.506289    -10.620872    8.926688    -3.372030    2.421312    -4.194622    6.067519    0.626089    6.774552    5.804991    -4.843852    -2.438485    0.542801    0.004714    2.473689    2.645098    4.045088    -1.172355    -7.836298    2.405926    0.000000    0.000000    0.000000    -13.018089    4.141060    -0.999525    12.251258    -4.158807    -1.734561    -3.819558    -1.088118    -8.414203    0.000000    0.000000    0.000000    
29.836369    75.884186    25.603491    -1.592835    1.570558    88.916901    -4.610640    -6.696018    3.936224    0.832742    3.984482    4.177129    10.580087    8.595766    0.529057    -7.986176    4.736215    -1.021783    30.443361    -4.096820    0.930514    -28.952541    -7.628259    -13.174036    2.020839    3.823241    1.433521    -8.813126    3.970487    -2.243056    -11.685829    -1.532753    -10.672083    8.924722    -3.457856    2.420127    -4.188433    6.115129    0.688110    6.737767    5.857210    -4.829991    -2.446231    0.547005    -0.000549    2.475256    2.644470    4.047422    -1.170244    -7.847422    2.400476    0.000000    0.000000    0.000000    -13.018931    4.150620    -1.005841    12.239717    -4.162844    -1.748644    -3.826737    -1.096984    -8.383987    0.000000    0.000000    0.000000    
29.835403    75.884178    25.597948    -1.600464    1.569095    88.912949    -4.627172    -6.709710    3.955669    0.853970    4.000454    4.197248    10.600033    8.578929    0.544040    -8.008500    4.741340    -1.011489    30.478418    -4.120317    0.926839    -29.023006    -7.623155    -13.197316    1.979247    3.843202    1.452539    -8.732004    3.993966    -2.307620    -11.696958    -1.540955    -10.730517    8.935111    -3.475487    2.421750    -4.205280    6.134824    0.752129    6.810964    5.873373    -4.879092    -2.449497    0.534324    0.004137    2.478690    2.650656    4.064886    -1.168021    -7.829563    2.377156    0.000000    0.000000    0.000000    -13.032459    4.137027    -0.977161    12.260981    -4.157274    -1.721147    -3.827879    -1.095504    -8.449309    0.000000    0.000000    0.000000    
29.843670    75.882385    25.600206    -1.584903    1.566234    88.943474    -4.650763    -6.700797    3.948718    0.865985    4.006566    4.190846    10.620056    8.551484    0.573855    -8.012392    4.775307    -0.982582    30.515074    -4.132347    0.932194    -29.075401    -7.635441    -13.213327    1.947543    3.886521    1.483171    -8.804758    4.038797    -2.309624    -11.691081    -1.567069    -10.754264    8.940129    -3.492645    2.411693    -4.211740    6.152924    0.786422    6.839555    5.893881    -4.840150    -2.434795    0.556536    -0.016455    2.456905    2.643271    4.040142    -1.161156    -7.843386    2.400401    0.000000    0.000000    0.000000    -13.017345    4.185450    -1.000002    12.286241    -4.165463    -1.775334    -3.905056    -1.123562    -8.484235    0.000000    0.000000    0.000000    
29.843378    75.882675    25.595703    -1.594165    1.563651    88.939621    -4.675656    -6.706868    3.959984    0.905042    4.001026    4.202497    10.634643    8.544379    0.583084    -8.049416    4.789856    -0.977355    30.517523    -4.133817    0.939568    -29.117130    -7.603884    -13.235145    1.943805    3.886999    1.493738    -8.875147    4.038442    -2.282529    -11.714427    -1.583029    -10.794560    8.947982    -3.456203    2.403978    -4.197862    6.122752    0.840268    6.767566    5.871741    -4.786754    -2.436084    0.549895    -0.000000    2.468229    2.644455    4.004402    -1.196493    -7.837749    2.406583    0.000000    0.000000    0.000000    -13.010488    4.168811    -1.004421    12.238492    -4.178626    -1.737274    -3.836937    -1.094079    -8.437085    0.000000    0.000000    0.000000    
29.846621    75.881424    25.591009    -1.587214    1.560644    88.937195    -4.677198    -6.702022    3.961406    0.909057    4.004316    4.203648    10.628703    8.535445    0.601698    -8.050925    4.811079    -0.957283    30.533276    -4.142195    0.957520    -29.164463    -7.623880    -13.242754    1.931629    3.920378    1.525275    -8.990465    4.073197    -2.275358    -11.731091    -1.584808    -10.812510    8.972255    -3.466813    2.414196    -4.209639    6.116249    0.866264    6.801310    5.865742    -4.771866    -2.429200    0.564836    -0.011010    2.450703    2.633200    3.990429    -1.135794    -7.855165    2.434249    0.000000    0.000000    0.000000    -13.014793    4.183688    -0.986141    12.242463    -4.194864    -1.747792    -3.834144    -1.088115    -8.437360    0.000000    0.000000    0.000000    
29.845793    75.882896    25.586874    -1.597331    1.558823    88.933998    -4.673038    -6.727744    3.966052    0.893440    4.043319    4.209335    10.660507    8.510399    0.626066    -8.090034    4.811275    -0.940381    30.581533    -4.114855    0.985145    -29.224665    -7.676775    -13.279509    1.900401    3.929196    1.559131    -9.045180    4.082621    -2.271127    -11.726380    -1.612913    -10.825941    8.969771    -3.412339    2.393151    -4.203103    6.080845    0.922401    6.820998    5.830530    -4.788312    -2.431390    0.551007    0.002034    2.454902    2.639661    4.012186    -1.196276    -7.847548    2.397699    0.000000    0.000000    0.000000    -13.011955    4.172248    -0.995730    12.272772    -4.172665    -1.788090    -3.895167    -1.110834    -8.468032    0.000000    0.000000    0.000000    
29.848957    75.881157    25.581682    -1.600385    1.554275    88.927879    -4.669773    -6.744015    3.968181    0.898890    4.067353    4.211570    10.659459    8.489115    0.646759    -8.109365    4.841028    -0.921121    30.575838    -4.145920    0.993613    -29.224821    -7.614725    -13.248582    1.876397    3.899132    1.571073    -9.093205    4.053196    -2.265526    -11.748892    -1.609025    -10.838472    8.988330    -3.398200    2.398103    -4.197953    6.070402    0.948367    6.820349    5.818992    -4.822304    -2.431174    0.549689    0.003069    2.454402    2.688002    3.475232    -1.098583    -7.921836    2.977108    0.000000    0.000000    0.000000    -13.007382    4.177583    -1.001060    12.229556    -4.210952    -1.747808    -3.802448    -1.066836    -8.420491    0.000000    0.000000    0.000000    
29.849064    75.881668    25.574619    -1.603248    1.555172    88.912971    -4.663570    -6.748846    3.982985    0.878180    4.071293    4.226906    10.752723    8.493239    0.649347    -8.243661    4.849030    -0.937504    30.599751    -4.163026    1.006664    -29.261021    -7.662736    -13.277627    1.831626    3.915142    1.649516    -9.164706    4.074209    -2.318065    -11.738238    -1.630147    -10.842590    8.995319    -3.302630    2.372116    -4.231248    6.044253    0.976064    6.844431    5.794524    -4.798734    -2.431918    0.552522    0.011373    2.444510    2.634281    4.010687    -1.141828    -7.853526    2.417375    0.000000    0.000000    0.000000    -13.012037    4.168291    -0.992417    12.226021    -4.203856    -1.744372    -3.817756    -1.069837    -8.420147    0.000000    0.000000    0.000000    
29.849771    75.881653    25.569857    -1.607835    1.551975    88.898598    -4.651548    -6.748493    3.984759    0.864933    4.072776    4.228404    10.714034    8.469105    0.676011    -8.203944    4.874163    -0.903523    30.607370    -4.149304    1.028270    -29.274992    -7.672608    -13.265657    1.811686    3.905245    1.663916    -9.204004    4.065139    -2.317753    -11.756646    -1.631063    -10.844762    9.002324    -3.321729    2.371535    -4.198509    6.065945    0.995763    6.827620    5.818237    -4.784028    -2.434069    0.555426    0.015147    2.451273    2.622402    4.023702    -1.162973    -7.855954    2.401219    0.000000    0.000000    0.000000    -13.013975    4.154199    -0.979503    12.225379    -4.190538    -1.721597    -3.822595    -1.081269    -8.435580    0.000000    0.000000    0.000000    
29.852465    75.880745    25.564817    -1.609185    1.548596    88.893463    -4.637286    -6.744077    3.973726    0.850994    4.060846    4.216943    10.691527    8.481261    0.690440    -8.202621    4.881814    -0.885433    30.596237    -4.142579    1.046216    -29.270319    -7.680832    -13.239019    1.785322    3.906957    1.694487    -9.200191    4.066229    -2.312213    -11.772426    -1.620852    -10.817825    9.030162    -3.296085    2.378257    -4.237779    6.073130    0.989412    6.913836    5.819975    -4.816651    -2.434407    0.563173    0.006720    2.451919    2.612879    4.049053    -1.142393    -7.852679    2.384100    0.000000    0.000000    0.000000    -13.009780    4.158265    -0.981878    12.219497    -4.198863    -1.696866    -3.796092    -1.069426    -8.462279    0.000000    0.000000    0.000000    
29.856596    75.880127    25.560343    -1.604490    1.547915    88.885880    -4.606694    -6.729207    3.969897    0.790226    4.050265    4.212942    10.708592    8.498107    0.712953    -8.209200    4.851767    -0.863287    30.635632    -4.136676    1.068018    -29.285076    -7.667844    -13.214502    1.780143    3.902181    1.713713    -9.233618    4.061205    -2.303367    -11.754464    -1.623392    -10.792472    9.039061    -3.291198    2.367301    -4.245224    6.079498    0.984185    6.945263    5.826438    -4.791102    -2.433107    0.579030    0.010987    2.437877    2.599563    4.051142    -1.135452    -7.861636    2.400290    0.000000    0.000000    0.000000    -13.011852    4.173608    -0.979543    12.214949    -4.215532    -1.733986    -3.824607    -1.073718    -8.403049    0.000000    0.000000    0.000000    
29.857754    75.879646    25.553221    -1.612305    1.547073    88.867188    -4.596011    -6.715418    3.972365    0.784923    4.009617    4.214686    10.673895    8.516150    0.722969    -8.187700    4.853532    -0.848726    30.599134    -4.117887    1.062329    -29.264112    -7.693373    -13.190365    1.761400    3.923255    1.753276    -9.190087    4.075005    -2.227776    -11.754962    -1.627614    -10.768989    9.027535    -3.286926    2.353844    -4.246133    6.095430    0.983374    6.973175    5.840208    -4.807361    -2.446309    0.570725    0.019702    2.450981    2.656603    3.527215    -1.051795    -7.939819    2.971443    0.000000    0.000000    0.000000    -13.021215    4.162929    -0.971484    12.221335    -4.217611    -1.713995    -3.785836    -1.064696    -8.419801    0.000000    0.000000    0.000000    
